<svg width="122.587" height="35.55" viewBox="0 0 122.587 35.55" xmlns="http://www.w3.org/2000/svg"><g id="svgGroup" stroke-linecap="round" fill-rule="evenodd" font-size="9pt" stroke="#000" stroke-width="0.1mm" fill="#000" style="stroke:#000;stroke-width:0.1mm;fill:#000"><path d="M 52.787 29.7 Q 51.067 28.58 50.467 27.76 Q 49.867 26.94 50.947 26.26 Q 51.187 26.1 51.727 26.52 Q 52.267 26.94 52.627 27.3 Q 53.427 28.02 54.607 28.2 Q 55.787 28.38 57.267 27.98 Q 58.947 27.46 60.207 26.52 Q 61.467 25.58 62.587 24.22 Q 63.427 23.14 63.747 21.88 Q 64.067 20.62 64.007 19.54 Q 63.947 18.46 63.547 18.02 Q 62.547 16.62 60.767 16.08 Q 58.987 15.54 56.587 16.18 Q 56.307 16.22 55.747 16.34 Q 55.187 16.46 54.747 16.56 Q 54.307 16.66 54.267 16.66 Q 53.987 16.74 53.827 16.84 Q 53.667 16.94 53.447 17.44 Q 53.227 17.94 52.787 19.2 Q 52.347 20.46 51.467 22.9 Q 50.627 25.34 50.127 26.36 Q 49.627 27.38 49.247 27.28 Q 48.867 27.18 48.307 26.42 Q 47.987 25.86 47.907 25.32 Q 47.827 24.78 48.227 24.06 Q 48.427 23.7 48.547 23.4 Q 48.667 23.1 48.867 22.34 Q 49.067 21.74 49.647 20.24 Q 50.227 18.74 51.027 16.72 Q 51.827 14.7 52.707 12.54 Q 53.587 10.38 54.407 8.46 Q 55.227 6.54 55.787 5.22 Q 56.347 3.98 56.467 3.42 Q 56.587 2.86 56.387 2.82 Q 56.387 2.62 56.267 2.44 Q 56.147 2.26 56.187 2.1 Q 56.187 1.94 56.727 1.66 Q 57.267 1.38 57.927 1.14 Q 58.587 0.9 58.947 0.98 Q 59.147 0.98 59.427 0.96 Q 59.707 0.94 59.707 0.78 Q 59.827 0.78 60.467 0.7 Q 61.107 0.62 61.867 0.7 Q 64.547 0.94 66.027 2.24 Q 67.507 3.54 67.467 5.78 Q 67.427 6.46 66.767 7.62 Q 66.107 8.78 65.167 9.94 Q 64.227 11.1 63.347 11.9 Q 62.827 12.34 62.247 12.8 Q 61.667 13.26 61.247 13.56 L 60.827 13.86 L 61.147 13.98 Q 61.467 14.1 61.827 14.22 Q 63.667 14.9 64.867 15.94 Q 66.067 16.98 66.507 18.82 Q 66.667 19.42 66.527 20.3 Q 66.387 21.18 66.147 22.04 Q 65.907 22.9 65.627 23.5 Q 65.347 23.78 65.187 24.08 L 65.027 24.38 Q 65.027 24.46 64.707 25 Q 64.387 25.54 63.947 26.18 Q 63.507 26.82 63.107 27.3 Q 62.707 27.62 62.167 28.06 Q 61.627 28.5 60.967 28.9 Q 60.307 29.3 59.547 29.58 Q 58.427 30.06 57.127 30.24 Q 55.827 30.42 54.667 30.28 Q 53.507 30.14 52.787 29.7 Z M 20.507 16.62 L 20.507 16.38 Q 20.507 16.18 20.887 15.7 Q 21.267 15.22 21.827 14.64 Q 22.387 14.06 22.987 13.52 Q 23.587 12.98 23.987 12.74 Q 24.827 12.18 25.727 12.06 Q 26.627 11.94 27.267 12.46 L 27.667 12.86 Q 27.947 13.14 28.327 13.48 Q 28.707 13.82 29.107 14.18 L 30.587 15.5 L 29.867 17.5 Q 29.347 19.1 29.607 20.3 Q 29.867 21.5 30.387 22.38 Q 30.587 22.82 31.207 23.22 Q 31.827 23.62 32.387 23.7 Q 32.707 23.74 32.987 23.94 A 0.638 0.638 0 0 1 33.235 24.311 A 1.035 1.035 0 0 1 33.25 24.379 L 33.927 23.62 Q 34.747 22.7 35.867 21.74 L 38.427 19.22 L 37.987 17.7 Q 37.707 17.06 37.407 16.36 Q 37.107 15.66 36.947 15.18 Q 36.467 14.5 36.447 14.32 Q 36.427 14.14 36.747 13.66 Q 37.067 13.34 37.287 13.24 Q 37.507 13.14 37.987 13.46 Q 38.227 13.46 38.627 14.12 Q 39.027 14.78 39.367 15.56 Q 39.707 16.34 39.707 16.66 Q 39.707 17.3 40.187 17.18 Q 40.667 17.06 41.627 16.42 Q 42.107 15.98 42.387 15.68 L 42.667 15.38 Q 42.787 15.26 43.387 14.84 Q 43.987 14.42 44.627 13.98 Q 45.267 13.54 45.467 13.46 Q 45.787 13.22 46.187 13.44 Q 46.587 13.66 46.867 14.08 Q 47.147 14.5 47.147 14.94 Q 47.147 15.42 46.907 15.7 Q 46.667 15.98 45.867 16.42 Q 45.147 16.94 44.607 17.34 Q 44.067 17.74 43.487 18.2 Q 42.907 18.66 42.027 19.42 L 40.987 20.26 L 41.627 21.34 Q 41.787 21.62 42.087 22.14 Q 42.387 22.66 42.667 22.82 Q 42.907 23.14 43.587 23.7 Q 44.267 24.26 44.927 24.72 Q 45.583 25.177 45.666 25.18 Q 45.827 25.18 46.027 25.3 Q 46.227 25.42 46.507 25.58 Q 46.827 25.9 46.927 26.3 Q 47.027 26.7 46.927 27 Q 46.827 27.3 46.507 27.3 Q 46.347 27.3 46.087 27.26 Q 45.827 27.22 45.667 27.06 Q 45.507 27.06 45.107 26.94 Q 44.707 26.82 44.387 26.66 Q 43.987 26.5 43.307 26 Q 42.627 25.5 41.947 24.9 Q 41.267 24.3 40.807 23.78 Q 40.347 23.26 40.347 23.02 Q 40.347 22.82 40.147 22.82 L 40.027 22.68 Q 39.907 22.54 39.907 22.38 Q 39.907 21.98 39.507 21.98 L 38.827 22.54 Q 38.147 23.1 37.347 23.9 Q 36.227 25.02 35.687 25.52 Q 35.147 26.02 34.827 26.02 Q 34.507 26.02 34.107 25.78 Q 33.707 25.54 33.407 25.2 A 1.559 1.559 0 0 1 33.248 24.989 A 0.998 0.998 0 0 1 33.224 24.949 A 1.074 1.074 0 0 1 33.178 25.086 A 0.808 0.808 0 0 1 33.107 25.22 Q 32.947 25.46 32.547 25.54 Q 31.227 25.7 30.087 24.9 Q 28.947 24.1 27.987 22.26 Q 27.827 22.02 27.567 21.36 Q 27.307 20.7 27.267 20.5 Q 27.107 20.7 26.667 21.24 Q 26.227 21.78 25.987 22.02 Q 23.147 24.9 21.087 25.88 Q 19.027 26.86 17.667 25.98 Q 17.507 25.66 17.267 25.48 Q 17.027 25.3 17.027 25.14 Q 17.027 24.98 17.007 24.8 Q 16.987 24.62 16.827 24.46 Q 16.627 24.22 16.867 23.36 Q 17.107 22.5 17.667 21.24 Q 18.227 19.98 18.987 18.58 Q 19.307 18.26 19.627 17.74 Q 19.947 17.22 20.107 17.06 Q 20.107 16.9 20.227 16.76 Q 20.347 16.62 20.507 16.62 Z M 5.107 34.66 Q 4.427 34.98 3.567 34.92 Q 2.707 34.86 1.867 34.44 Q 1.027 34.02 0.387 33.34 Q 0.107 33.02 0.027 32.72 Q -0.053 32.42 0.107 31.9 Q 0.307 31.18 0.627 31.18 Q 1.067 31.18 1.627 31.94 Q 2.747 32.94 3.847 32.5 Q 4.947 32.06 6.187 30.14 Q 6.427 29.54 6.947 28.42 Q 7.467 27.3 8.047 26.02 Q 8.627 24.74 9.107 23.64 Q 9.587 22.54 9.747 22.06 L 9.767 21.92 Q 9.787 21.78 9.947 21.62 Q 9.987 21.46 10.147 20.98 Q 10.307 20.5 10.467 19.86 Q 10.627 19.42 10.927 18.54 Q 11.227 17.66 11.567 16.7 Q 11.907 15.74 12.147 15.1 Q 12.347 14.26 12.647 13.28 Q 12.947 12.3 13.147 11.78 Q 13.307 11.46 13.627 10.48 Q 13.947 9.5 14.347 8.34 Q 14.827 6.78 15.267 5.44 Q 15.707 4.1 15.967 3.24 Q 16.227 2.38 16.147 2.26 L 15.447 2.38 Q 14.747 2.5 13.907 2.66 Q 13.227 2.94 12.567 2.84 Q 11.907 2.74 11.947 2.58 L 11.947 2.4 L 11.947 2.38 Q 11.827 2.46 11.627 2.32 Q 11.427 2.18 11.267 1.92 Q 11.107 1.66 11.107 1.46 Q 11.107 1.14 11.907 0.88 Q 12.707 0.62 13.947 0.46 Q 14.747 0.34 15.527 0.24 Q 16.307 0.14 16.827 0.06 Q 16.987 -0.06 17.407 0.06 Q 17.827 0.18 18.287 0.38 Q 18.747 0.58 18.947 0.82 Q 19.187 1.14 19.247 1.5 Q 19.307 1.86 19.147 2.5 Q 18.987 3.14 18.567 4.32 Q 18.147 5.5 17.387 7.54 Q 16.507 10.02 15.827 12.04 Q 15.147 14.06 14.587 15.38 Q 14.467 15.82 14.167 16.66 Q 13.867 17.5 13.587 18.36 Q 13.307 19.22 13.147 19.78 Q 12.827 20.54 12.547 21.42 Q 12.267 22.3 12.107 22.82 Q 12.107 23.14 11.947 23.54 Q 11.787 23.94 11.587 24.14 L 11.307 24.84 Q 11.027 25.54 10.627 26.5 Q 10.307 27.3 9.927 28.28 Q 9.547 29.26 9.227 29.78 Q 9.027 30.26 8.747 30.68 Q 8.467 31.1 8.467 31.26 L 8.447 31.38 Q 8.427 31.5 8.267 31.5 L 8.147 31.6 Q 8.027 31.7 8.027 31.9 Q 7.947 32.14 7.607 32.54 Q 7.267 32.94 6.807 33.38 Q 6.347 33.82 5.887 34.16 Q 5.427 34.5 5.107 34.66 Z M 85.707 15.86 L 86.787 13.54 L 85.187 13.1 Q 84.907 13.02 84.727 12.78 Q 84.547 12.54 84.547 12.38 Q 84.547 12.06 84.907 11.6 Q 85.267 11.14 85.427 11.14 Q 85.627 11.18 86.167 11.18 Q 86.707 11.18 87.227 11.14 Q 87.747 11.1 87.867 11.06 Q 88.027 10.98 88.187 10.84 Q 88.347 10.7 88.427 10.42 Q 88.627 9.98 88.787 9.6 Q 88.947 9.22 89.227 8.74 Q 89.507 8.22 89.687 7.86 Q 89.867 7.5 90.267 6.86 Q 90.467 6.58 90.707 6.18 Q 90.947 5.78 91.307 5.5 Q 91.667 5.18 92.047 5.2 Q 92.427 5.22 93.027 5.74 Q 93.347 6.14 93.387 6.34 Q 93.427 6.54 93.067 7.1 Q 92.747 7.78 92.327 8.46 Q 91.907 9.14 91.547 9.82 Q 90.907 10.7 91.307 10.82 Q 91.707 10.94 93.547 10.66 Q 94.707 10.46 95.227 10.76 Q 95.747 11.06 95.827 11.74 Q 95.947 12.7 95.627 12.9 Q 95.307 13.1 93.787 13.1 Q 92.827 13.26 92.147 13.28 Q 91.467 13.3 91.147 13.3 Q 90.627 13.34 90.467 13.34 Q 90.307 13.34 89.987 13.42 Q 89.667 13.5 89.527 13.68 Q 89.387 13.86 89.227 14.18 Q 89.067 14.34 88.747 15.02 Q 88.427 15.7 87.947 16.5 Q 87.387 18.18 86.987 19.84 Q 86.587 21.5 86.347 23.06 Q 86.187 24.06 86.387 24.44 Q 86.587 24.82 87.427 24.9 Q 87.867 24.94 88.847 24.88 Q 89.827 24.82 90.387 24.66 Q 90.827 24.46 91.307 24.24 Q 91.787 24.02 92.187 23.78 Q 92.547 23.58 92.907 23.36 L 93.267 23.14 Q 93.467 22.82 93.707 22.94 Q 93.947 23.06 94.107 23.54 Q 94.107 24.02 93.907 24.54 Q 93.707 25.06 92.427 25.78 Q 90.627 26.9 89.127 27.12 Q 87.627 27.34 86.587 27.14 Q 86.147 27.06 85.687 26.68 Q 85.227 26.3 84.887 25.8 Q 84.547 25.3 84.427 24.9 Q 84.427 24.82 84.327 24.7 L 84.227 24.58 Q 84.067 24.46 84.047 23.52 Q 84.027 22.58 84.147 21.42 Q 84.267 20.26 84.427 19.58 Q 84.627 18.94 85.027 17.84 Q 85.427 16.74 85.707 15.86 Z M 112.107 27.58 Q 111.347 27.26 110.667 26.72 Q 109.987 26.18 109.787 25.82 Q 109.787 25.46 109.907 25.32 Q 110.027 25.18 110.607 25.2 Q 111.187 25.22 112.507 25.38 Q 112.987 25.38 113.707 25.3 Q 114.427 25.22 115.047 25.06 Q 115.667 24.9 115.747 24.66 Q 115.947 24.66 115.827 24.52 Q 115.707 24.38 115.547 24.22 Q 115.387 24.22 115.187 24.08 Q 114.987 23.94 114.827 23.94 Q 114.827 23.74 114.447 23.48 Q 114.067 23.22 113.667 23.06 Q 112.787 22.34 112.147 21.76 Q 111.507 21.18 111.667 20.98 L 111.667 20.8 L 111.667 20.78 Q 111.387 20.78 111.047 19.98 Q 110.707 19.18 110.707 18.54 Q 110.707 18.06 110.987 17.32 Q 111.267 16.58 111.747 15.78 Q 112.227 14.98 112.747 14.46 Q 113.467 13.78 114.547 13 Q 115.627 12.22 116.687 11.6 Q 117.747 10.98 118.467 10.78 Q 119.187 10.5 119.807 10.5 Q 120.427 10.5 120.907 10.78 Q 121.307 10.98 121.647 11.36 Q 121.987 11.74 122.247 12.12 Q 122.507 12.5 122.587 12.78 Q 122.587 13.26 122.507 13.84 Q 122.427 14.42 122.287 14.86 Q 122.147 15.3 121.867 15.3 L 121.767 15.32 Q 121.667 15.34 121.667 15.54 Q 121.667 15.94 121.067 16.46 Q 120.307 16.98 119.747 17.08 Q 119.187 17.18 119.067 16.66 Q 118.947 16.5 118.907 16.38 Q 118.867 16.26 118.707 16.26 L 118.587 16.14 Q 118.467 16.02 118.467 15.74 Q 118.467 15.58 118.587 15.44 L 118.707 15.3 Q 118.907 15.3 119.227 14.84 Q 119.547 14.38 119.807 13.84 Q 120.067 13.3 120.067 13.1 Q 120.067 12.86 120.007 12.82 Q 119.947 12.78 119.627 12.78 Q 119.067 13.02 118.267 13.42 Q 117.467 13.82 116.767 14.2 Q 116.067 14.58 115.747 14.9 Q 115.587 15.18 115.547 15.24 Q 115.507 15.3 115.347 15.3 Q 115.347 15.14 115.087 15.44 Q 114.827 15.74 114.447 16.26 Q 114.067 16.78 113.727 17.28 Q 113.387 17.78 113.227 18.02 Q 113.147 18.1 113.047 18.48 Q 112.947 18.86 112.947 19.18 Q 112.787 19.66 112.987 19.84 Q 113.187 20.02 113.867 20.58 Q 115.267 21.62 116.067 22.3 Q 116.867 22.98 117.267 23.42 Q 117.667 23.86 117.747 24.22 Q 118.467 25.42 118.187 26.06 Q 117.907 26.7 116.827 27.18 Q 116.427 27.38 115.507 27.5 Q 114.587 27.62 113.627 27.64 Q 112.667 27.66 112.107 27.58 Z M 68.547 35.38 Q 67.587 35.66 66.447 35.48 Q 65.307 35.3 64.447 34.78 Q 63.587 34.26 63.467 33.62 Q 63.427 33.38 63.607 33.1 Q 63.787 32.82 64.047 32.72 Q 64.307 32.62 64.507 32.86 Q 64.827 33.06 65.667 33.36 Q 66.507 33.66 67.547 33.46 Q 68.467 33.26 69.367 32.38 Q 70.267 31.5 70.827 30.74 Q 71.147 30.26 71.907 29.02 Q 72.667 27.78 73.487 26.28 Q 74.307 24.78 74.867 23.5 Q 74.987 23.18 75.147 22.74 Q 75.307 22.3 75.547 22.02 Q 75.787 21.54 75.967 21.12 Q 76.147 20.7 76.187 20.54 Q 76.227 20.34 76.547 19.74 Q 76.867 19.14 77.147 18.54 Q 77.347 17.94 77.747 16.78 Q 78.147 15.62 78.547 14.9 Q 79.027 13.98 79.327 13.4 Q 79.627 12.82 79.987 12.7 Q 80.347 12.42 80.487 12.42 Q 80.627 12.42 81.067 12.66 Q 81.547 13.14 81.667 13.6 Q 81.787 14.06 81.567 14.72 Q 81.347 15.38 80.747 16.5 Q 80.427 17.46 80.047 18.24 Q 79.667 19.02 79.467 19.26 Q 79.267 19.74 79.007 20.32 Q 78.747 20.9 78.547 21.38 Q 77.827 22.98 77.307 23.98 Q 76.787 24.98 76.387 25.82 Q 75.987 26.66 75.547 27.78 Q 74.627 29.26 73.767 30.6 Q 72.907 31.94 71.947 33.1 Q 71.547 33.46 70.947 33.94 Q 70.347 34.42 69.727 34.82 Q 69.107 35.22 68.547 35.38 Z M 103.707 26.02 Q 102.867 26.74 101.767 26.86 Q 100.667 26.98 99.627 26.52 Q 98.587 26.06 97.907 25.1 Q 97.227 24.22 97.027 23.08 Q 96.827 21.94 96.987 20.1 Q 97.107 18.54 97.987 16.96 Q 98.867 15.38 100.127 14.14 Q 101.387 12.9 102.627 12.42 Q 103.227 12.02 103.647 12.04 Q 104.067 12.06 104.947 12.14 Q 105.867 12.26 106.327 12.5 Q 106.787 12.74 107.067 13.14 Q 107.667 13.74 107.867 14.32 Q 108.067 14.9 108.067 15.46 Q 107.907 16.34 106.887 17.6 Q 105.867 18.86 104.227 19.66 Q 103.347 19.94 102.307 19.9 Q 101.267 19.86 100.587 19.38 Q 99.827 19.06 99.587 19.48 Q 99.347 19.9 99.147 21.5 Q 98.987 23.02 99.387 23.72 Q 99.787 24.42 100.467 24.54 Q 101.267 24.7 101.727 24.76 Q 102.187 24.82 102.867 24.42 Q 103.507 24.02 103.667 23.96 Q 103.827 23.9 103.927 23.8 L 104.427 23.3 Q 104.707 23.02 104.867 22.88 Q 105.027 22.74 105.227 22.74 Q 105.427 22.74 105.587 22.92 Q 105.747 23.1 105.907 23.18 Q 106.307 23.18 106.087 23.66 Q 105.867 24.14 105.227 24.8 Q 104.587 25.46 103.707 26.02 Z M 54.747 14.3 L 55.487 14.16 Q 56.227 14.02 57.107 13.84 Q 57.987 13.66 58.387 13.5 Q 58.587 13.38 58.967 13.18 Q 59.347 12.98 59.747 12.58 Q 60.307 12.06 61.167 11.08 Q 62.027 10.1 62.867 9 Q 63.707 7.9 64.147 7.02 Q 65.067 5.58 65.147 4.88 Q 65.227 4.18 64.707 3.66 Q 64.347 3.22 63.487 3.08 Q 62.627 2.94 61.667 3 Q 60.707 3.06 60.027 3.26 Q 59.507 3.42 59.227 3.64 Q 58.947 3.86 58.947 4.3 Q 58.947 4.66 58.727 5 Q 58.507 5.34 58.307 5.54 Q 58.267 5.82 58.107 6.04 L 57.947 6.26 Q 57.947 6.42 57.387 7.58 Q 56.827 8.74 56.267 10.26 Q 55.547 11.98 55.147 13.04 Q 54.747 14.1 54.747 14.3 Z M 73.947 25.78 Q 73.347 25.7 72.767 25.06 Q 72.187 24.42 71.867 23.7 Q 71.547 22.98 71.627 22.66 L 71.627 22.34 L 71.627 22.22 Q 71.387 22.22 71.207 21.62 Q 71.027 21.02 70.947 20.06 Q 70.867 19.1 70.847 18.02 Q 70.827 16.94 70.907 15.98 Q 71.067 15.3 71.067 14.48 Q 71.067 13.66 71.107 13.18 Q 71.067 12.54 71.227 12.32 Q 71.387 12.1 71.547 11.98 Q 72.667 11.5 73.047 12.56 Q 73.427 13.62 73.227 16.5 Q 73.147 18.1 73.227 19.7 Q 73.307 21.3 73.687 22.5 Q 74.067 23.7 74.747 24.14 Q 75.027 24.3 75.027 24.58 Q 75.027 24.86 74.867 25.16 Q 74.707 25.46 74.447 25.64 Q 74.187 25.82 73.947 25.78 Z M 26.787 17.46 L 27.667 16.02 Q 27.267 15.1 26.807 14.76 Q 26.347 14.42 26.027 14.42 Q 25.507 14.42 24.487 15.38 Q 23.467 16.34 22.307 17.94 Q 21.147 19.54 20.107 21.46 Q 19.707 22.26 19.407 23 L 19.107 23.74 Q 19.107 24.02 19.967 23.72 Q 20.827 23.42 21.827 22.62 Q 23.187 21.46 24.567 20.06 Q 25.947 18.66 26.787 17.46 Z M 103.667 17.54 Q 104.107 17.34 104.587 16.96 Q 105.067 16.58 105.407 16.12 Q 105.747 15.66 105.747 15.34 Q 105.747 14.78 105.227 14.4 Q 104.707 14.02 103.667 14.3 Q 103.227 14.42 102.667 14.88 Q 102.107 15.34 101.607 15.9 Q 101.107 16.46 100.807 16.9 Q 100.507 17.34 100.587 17.42 Q 100.707 17.62 101.267 17.72 Q 101.827 17.82 102.527 17.78 Q 103.227 17.74 103.667 17.54 Z"/></g></svg>